<svg width="35" height="42" viewBox="0 0 35 42" fill="none" xmlns="http://www.w3.org/2000/svg">
<path d="M5.25 16.1234V26.7251C5.25 28.135 4.14714 29.2611 2.74349 29.2611C1.34896 29.2611 0 28.1259 0 26.7251V16.1234C0 14.741 1.34896 13.6057 2.74349 13.6057C4.11979 13.6057 5.25 14.741 5.25 16.1234ZM6.23438 30.4971C6.23438 31.9985 7.4375 33.207 8.93229 33.207H10.7461L10.7734 38.8008C10.7734 42.1791 15.8047 42.1516 15.8047 38.8008V33.207H19.1953V38.8008C19.1953 42.1608 24.2539 42.1699 24.2539 38.8008V33.207H26.0951C27.5716 33.207 28.7747 31.9985 28.7747 30.4971V14.0726H6.23438V30.4971ZM28.8385 13.1846H6.13412C6.13412 9.26616 8.46745 5.86043 11.931 4.08433L10.1901 0.852546C9.9349 0.403941 10.582 0.120131 10.8008 0.504649L12.569 3.7639C15.75 2.34484 19.4049 2.41808 22.4401 3.7639L24.1992 0.513804C24.4271 0.12013 25.0651 0.413097 24.8099 0.861701L23.069 4.08433C26.5052 5.86043 28.8385 9.26616 28.8385 13.1846ZM13.2799 8.10346C13.2799 7.58161 12.8607 7.14216 12.3229 7.14216C11.8034 7.14216 11.3932 7.58161 11.3932 8.10346C11.3932 8.6253 11.8125 9.06475 12.3229 9.06475C12.8607 9.06475 13.2799 8.6253 13.2799 8.10346ZM23.6159 8.10346C23.6159 7.58161 23.1966 7.14216 22.6862 7.14216C22.1484 7.14216 21.7292 7.58161 21.7292 8.10346C21.7292 8.6253 22.1484 9.06475 22.6862 9.06475C23.1966 9.06475 23.6159 8.6253 23.6159 8.10346ZM32.2565 13.6057C30.8802 13.6057 29.75 14.7135 29.75 16.1234V26.7251C29.75 28.135 30.8802 29.2611 32.2565 29.2611C33.6602 29.2611 35 28.1259 35 26.7251V16.1234C35 14.7135 33.651 13.6057 32.2565 13.6057Z" fill="black"/>
</svg>
