<svg width="33" height="40" viewBox="0 0 33 40" fill="none" xmlns="http://www.w3.org/2000/svg">
<path d="M27.5906 20.9335C27.5731 17.7381 29.0284 15.3263 31.9742 13.5501C30.326 11.2079 27.8361 9.91927 24.5484 9.66677C21.436 9.42297 18.0343 11.4691 16.7893 11.4691C15.4742 11.4691 12.4583 9.75384 10.0911 9.75384C5.19899 9.8322 0 13.6284 0 21.3515C0 23.6327 0.420829 25.9894 1.26249 28.4215C2.3847 31.617 6.43517 39.4532 10.661 39.3226C12.8703 39.2704 14.4309 37.7641 17.3066 37.7641C20.0946 37.7641 21.5412 39.3226 24.0048 39.3226C28.2657 39.2617 31.9304 32.1394 33 28.9352C27.2837 26.2622 27.5906 21.099 27.5906 20.9335ZM22.6283 6.63675C25.0218 3.8157 24.8026 1.24715 24.7325 0.324219C22.6196 0.446116 20.1735 1.75216 18.7795 3.36294C17.2452 5.08692 16.3422 7.22012 16.5351 9.62323C18.8233 9.79737 20.9099 8.63064 22.6283 6.63675Z" fill="black"/>
</svg>
