<svg width="30" height="25" viewBox="0 0 40 35" fill="none" xmlns="http://www.w3.org/2000/svg">
<path d="M36.25 -0.00012207H3.75C1.67969 -0.00012207 0 1.67957 0 3.74988V31.2499C0 33.3202 1.67969 34.9999 3.75 34.9999H36.25C38.3203 34.9999 40 33.3202 40 31.2499V3.74988C40 1.67957 38.3203 -0.00012207 36.25 -0.00012207ZM29.7188 22.6952C30.0938 23.0702 30.0938 23.6796 29.7188 24.0546L26.5547 27.2186C26.1797 27.5936 25.5703 27.5936 25.1953 27.2186L20 21.9764L14.8047 27.2186C14.4297 27.5936 13.8203 27.5936 13.4453 27.2186L10.2812 24.0546C9.90625 23.6796 9.90625 23.0702 10.2812 22.6952L15.5234 17.4999L10.2812 12.3046C9.90625 11.9296 9.90625 11.3202 10.2812 10.9452L13.4453 7.78113C13.8203 7.40613 14.4297 7.40613 14.8047 7.78113L20 13.0233L25.1953 7.78113C25.5703 7.40613 26.1797 7.40613 26.5547 7.78113L29.7188 10.9452C30.0938 11.3202 30.0938 11.9296 29.7188 12.3046L24.4766 17.4999L29.7188 22.6952Z" fill="black"/>
</svg>
