<svg width="56" height="52" viewBox="0 0 56 52" fill="none" xmlns="http://www.w3.org/2000/svg">
<g clip-path="url(#clip0_75_732)">
<line x1="35.8699" y1="35.6302" x2="35.8698" y2="35.6301" stroke="black" stroke-width="7"/>
<mask id="path-2-inside-1_75_732" fill="white">
<path d="M47.1579 49.0786H0L2.44976 45.573H47.1579V49.0786Z"/>
</mask>
<path d="M0 49.0786L-6.55752 44.4962L-15.3503 57.0786H0V49.0786ZM47.1579 49.0786V57.0786H55.1579V49.0786H47.1579ZM47.1579 45.573H55.1579V37.573H47.1579V45.573ZM2.44976 45.573V37.573H-1.71955L-4.10776 40.9905L2.44976 45.573ZM0 57.0786H47.1579V41.0786H0V57.0786ZM55.1579 49.0786V45.573H39.1579V49.0786H55.1579ZM47.1579 37.573H2.44976V53.573H47.1579V37.573ZM-4.10776 40.9905L-6.55752 44.4962L6.55752 53.6611L9.00728 50.1555L-4.10776 40.9905Z" fill="black" mask="url(#path-2-inside-1_75_732)"/>
<mask id="path-4-inside-2_75_732" fill="white">
<path d="M48.6316 33.5955L45.0947 35.6404L29.1789 8.76404L5.01053 49.0787H0L29.1789 0L48.6316 33.5955Z"/>
</mask>
<path d="M45.0947 35.6404L39.9321 38.6977L42.9576 43.8068L48.098 40.8347L45.0947 35.6404ZM48.6316 33.5955L51.6348 38.7898L56.8324 35.7846L53.824 30.589L48.6316 33.5955ZM29.1789 0L34.3713 -3.00652L29.2473 -11.8559L24.0216 -3.06622L29.1789 0ZM0 49.0787L-5.15735 46.0124L-10.5475 55.0787H0V49.0787ZM5.01053 49.0787V55.0787H8.40914L10.1566 52.1637L5.01053 49.0787ZM29.1789 8.76404L34.3416 5.70679L29.2106 -2.95783L24.0328 5.67898L29.1789 8.76404ZM48.098 40.8347L51.6348 38.7898L45.6283 28.4012L42.0915 30.4462L48.098 40.8347ZM53.824 30.589L34.3713 -3.00652L23.9866 3.00652L43.4392 36.602L53.824 30.589ZM24.0216 -3.06622L-5.15735 46.0124L5.15735 52.1449L34.3363 3.06622L24.0216 -3.06622ZM0 55.0787H5.01053V43.0787H0V55.0787ZM10.1566 52.1637L34.3251 11.8491L24.0328 5.67898L-0.135577 45.9936L10.1566 52.1637ZM24.0163 11.8213L39.9321 38.6977L50.2574 32.5832L34.3416 5.70679L24.0163 11.8213Z" fill="black" mask="url(#path-4-inside-2_75_732)"/>
<path d="M54.4999 46.7416C54.4999 48.8048 52.8088 50.5 50.6947 50.5C48.5805 50.5 46.8894 48.8048 46.8894 46.7416C46.8894 44.6784 48.5805 42.9832 50.6947 42.9832C52.8088 42.9832 54.4999 44.6784 54.4999 46.7416Z" stroke="black" stroke-width="3"/>
<path d="M20.5454 41.0554C19.3587 41.0554 18.492 40.7954 17.9454 40.2754C17.412 39.7421 17.1454 38.9021 17.1454 37.7554C17.1454 37.1287 17.232 36.6087 17.4054 36.1954C17.592 35.7687 17.8854 35.4287 18.2854 35.1754C18.6987 34.9221 19.252 34.7421 19.9454 34.6354C20.652 34.5287 21.5254 34.4754 22.5654 34.4754H23.7054V36.3154H21.8254C21.2787 36.3154 20.8987 36.3821 20.6854 36.5154C20.4854 36.6354 20.3854 36.8687 20.3854 37.2154V38.6354H21.6654C22.212 38.6354 22.5854 38.5754 22.7854 38.4554C22.9987 38.3354 23.1054 38.1087 23.1054 37.7754V33.2154C22.8254 33.1354 22.4054 33.0954 21.8454 33.0954C21.272 33.0954 20.6654 33.1354 20.0254 33.2154C19.3987 33.2954 18.732 33.4287 18.0254 33.6154L17.6054 31.1554C18.072 31.0087 18.5587 30.8887 19.0654 30.7954C19.572 30.6887 20.092 30.6154 20.6254 30.5754C21.172 30.5221 21.712 30.4954 22.2454 30.4954C23.272 30.4954 24.1054 30.6154 24.7454 30.8554C25.3854 31.0821 25.8587 31.4421 26.1654 31.9354C26.472 32.4154 26.6254 33.0487 26.6254 33.8354V40.7754H24.8854L23.9854 39.7754C23.492 40.1887 22.952 40.5087 22.3654 40.7354C21.792 40.9487 21.1854 41.0554 20.5454 41.0554ZM34.6168 40.7754L27.8968 30.7754H31.7768L38.4968 40.7754H34.6168ZM27.8768 40.7754L31.5768 34.7754L33.6768 37.1954L31.6368 40.7754H27.8768ZM34.6568 36.9154L32.6768 34.3554L34.7168 30.7754H38.4768L34.6568 36.9154Z" fill="black"/>
</g>
<defs>
<clipPath id="clip0_75_732">
<rect width="56" height="52" fill="white"/>
</clipPath>
</defs>
</svg>
