<svg width="28" height="30" viewBox="0 0 28 30" fill="none" xmlns="http://www.w3.org/2000/svg">
<path d="M11.1799 8.86844L3.49078 1.0653L0.918482 0.631041C0.363743 0.537505 -0.088875 1.11289 0.0551794 1.72851L0.72406 4.58248L8.41322 12.3856C8.76816 11.719 9.17348 11.0759 9.64642 10.4746C10.1194 9.87343 10.6366 9.34382 11.1799 8.86844ZM25.3496 26.4106C28.7877 22.04 28.411 15.2864 24.5083 11.3258C20.6055 7.36519 14.6548 7.6976 11.2167 12.0682C7.77865 16.4389 8.15532 23.1925 12.058 27.1531C15.9608 31.1137 21.9115 30.7812 25.3496 26.4106ZM21.6201 22.6258C23.2412 20.565 23.063 17.3699 21.2228 15.5024C20.8979 15.1727 20.8665 14.6092 21.1527 14.2453C21.4389 13.8815 21.9355 13.8538 22.2603 14.1835C24.7498 16.7098 24.9904 21.0336 22.7978 23.821C22.5116 24.1848 22.0151 24.2126 21.6902 23.8829C21.3653 23.5532 21.3339 22.9896 21.6201 22.6258Z" fill="#F7F7F7"/>
</svg>
